<svg xmlns="http://www.w3.org/2000/svg" version="1.1" xmlns:xlink="http://www.w3.org/1999/xlink" viewBox="0 0 200 200"><rect width="200" height="200" fill="url('#gradient')"></rect><defs><linearGradient id="gradient" gradientTransform="rotate(172 0.5 0.5)"><stop offset="0%" stop-color="#040612"></stop><stop offset="100%" stop-color="#6674a7"></stop></linearGradient></defs><g><g fill="#bccfd0" transform="matrix(2.8041548630783755,0,0,2.8041548630783755,40.24486557581833,119.92789447629531)" stroke="#5aa3a6" stroke-width="0.2"><path d="M8.41-3.78L8.41-3.78Q8.41-4.53 7.88-4.95Q7.34-5.37 6.01-5.82Q4.67-6.27 3.82-6.69L3.82-6.69Q1.05-8.05 1.05-10.42L1.05-10.42Q1.05-11.60 1.74-12.50Q2.43-13.41 3.69-13.91Q4.95-14.41 6.52-14.41L6.52-14.41Q8.06-14.41 9.27-13.87Q10.49-13.32 11.16-12.31Q11.84-11.30 11.84-10L11.84-10L8.42-10Q8.42-10.87 7.89-11.35Q7.35-11.83 6.45-11.83L6.45-11.83Q5.53-11.83 5.00-11.42Q4.46-11.02 4.46-10.39L4.46-10.39Q4.46-9.84 5.05-9.40Q5.63-8.96 7.11-8.48Q8.58-8.01 9.53-7.46L9.53-7.46Q11.84-6.13 11.84-3.80L11.84-3.80Q11.84-1.93 10.43-0.87Q9.02 0.20 6.57 0.20L6.57 0.20Q4.84 0.20 3.44-0.42Q2.04-1.04 1.33-2.12Q0.63-3.20 0.63-4.61L0.63-4.61L4.06-4.61Q4.06-3.47 4.65-2.92Q5.24-2.38 6.57-2.38L6.57-2.38Q7.42-2.38 7.92-2.75Q8.41-3.12 8.41-3.78ZM21.39 0L18.88-5.02L17.02-5.02L17.02 0L13.59 0L13.59-14.22L19.19-14.22Q21.72-14.22 23.14-13.10Q24.57-11.97 24.57-9.92L24.57-9.92Q24.57-8.44 23.97-7.46Q23.37-6.48 22.09-5.88L22.09-5.88L25.06-0.15L25.06 0L21.39 0ZM17.02-11.57L17.02-7.67L19.19-7.67Q20.17-7.67 20.66-8.18Q21.15-8.69 21.15-9.61Q21.15-10.53 20.65-11.05Q20.16-11.57 19.19-11.57L19.19-11.57L17.02-11.57ZM26.64-14.22L31.14-14.22L34.32-4.33L37.48-14.22L41.99-14.22L41.99 0L38.55 0L38.55-3.32L38.89-10.12L35.45 0L33.18 0L29.74-10.13L30.07-3.32L30.07 0L26.64 0L26.64-14.22Z"></path></g></g></svg>